<?xml version="1.0" standalone="no"?>
<svg xmlns:xlink="http://www.w3.org/1999/xlink" id="wave" style="transform:rotate(180deg); transition: 0.3s" viewBox="0 0 1440 100" version="1.1" xmlns="http://www.w3.org/2000/svg"><defs><linearGradient id="sw-gradient-0" x1="0" x2="0" y1="1" y2="0"><stop stop-color="rgba(238, 214, 199, 1)" offset="0%"/><stop stop-color="rgba(238, 214, 199, 1)" offset="100%"/></linearGradient></defs><path style="transform:translate(0, 0px); opacity:1" fill="url(#sw-gradient-0)" d="M0,30L24,31.7C48,33,96,37,144,41.7C192,47,240,53,288,48.3C336,43,384,27,432,26.7C480,27,528,43,576,48.3C624,53,672,47,720,36.7C768,27,816,13,864,10C912,7,960,13,1008,21.7C1056,30,1104,40,1152,50C1200,60,1248,70,1296,68.3C1344,67,1392,53,1440,46.7C1488,40,1536,40,1584,46.7C1632,53,1680,67,1728,75C1776,83,1824,87,1872,85C1920,83,1968,77,2016,66.7C2064,57,2112,43,2160,36.7C2208,30,2256,30,2304,40C2352,50,2400,70,2448,75C2496,80,2544,70,2592,65C2640,60,2688,60,2736,63.3C2784,67,2832,73,2880,75C2928,77,2976,73,3024,65C3072,57,3120,43,3168,40C3216,37,3264,43,3312,41.7C3360,40,3408,30,3432,25L3456,20L3456,100L3432,100C3408,100,3360,100,3312,100C3264,100,3216,100,3168,100C3120,100,3072,100,3024,100C2976,100,2928,100,2880,100C2832,100,2784,100,2736,100C2688,100,2640,100,2592,100C2544,100,2496,100,2448,100C2400,100,2352,100,2304,100C2256,100,2208,100,2160,100C2112,100,2064,100,2016,100C1968,100,1920,100,1872,100C1824,100,1776,100,1728,100C1680,100,1632,100,1584,100C1536,100,1488,100,1440,100C1392,100,1344,100,1296,100C1248,100,1200,100,1152,100C1104,100,1056,100,1008,100C960,100,912,100,864,100C816,100,768,100,720,100C672,100,624,100,576,100C528,100,480,100,432,100C384,100,336,100,288,100C240,100,192,100,144,100C96,100,48,100,24,100L0,100Z"/></svg>